
<svg width="45px" height="55px" viewBox="0 0 45 55" version="1.1" xmlns="http://www.w3.org/2000/svg" xmlns:xlink="http://www.w3.org/1999/xlink">
  <g fill="#020203" fill-rule="nonzero">
		<path d="M3.23736494,25.7687348 L3.32990589,25.6981527 C3.42244685,25.8565702 3.61223423,26.1859533 3.90397351,26.6847334 C4.1941443,27.1835134 4.42314395,27.5599512 4.59254096,27.8140467 L9.52073893,35.325549 L12.5259672,35.325549 L12.5259672,19.0179505 L9.29173928,19.0179505 L9.29173928,28.5982921 L9.22272569,28.6688742 C9.0846985,28.4634019 8.89334263,28.1387243 8.65022656,27.6948414 L7.96165911,26.578076 L3.00836528,19.0179505 L0.00313698153,19.0179505 L0.00313698153,35.3239805 L3.23736494,35.3239805 L3.23736494,25.7687348 Z"></path>
		<path d="M25.5052283,34.469153 C26.568665,33.8982224 27.4125131,33.0669223 28.0383409,31.9736842 C28.6657372,30.8804461 28.9794353,29.5880098 28.9794353,28.0979435 L28.9794353,26.2439875 C28.9794353,24.7539212 28.6657372,23.4630533 28.0383409,22.3682468 C27.4109446,21.2750087 26.5670965,20.4421401 25.5052283,19.872778 C24.4417916,19.3018473 23.260718,19.016382 21.9620077,19.016382 L15.9186128,19.016382 L15.9186128,35.3224376 L21.9620077,35.322412 C23.2622865,35.325549 24.4433601,35.0400837 25.5052283,34.469153 Z M19.4728128,21.9416173 L21.9620077,21.9416173 C22.9407459,21.9416173 23.7359707,22.2710003 24.3476821,22.928198 C24.9593935,23.5853956 25.2652492,24.5170791 25.2652492,25.72168 L25.2652492,28.620251 C25.2652492,29.8264204 24.960962,30.7565354 24.3476821,31.413733 C23.7359707,32.0724991 22.9407459,32.4003137 21.9620077,32.4003137 L19.4728128,32.4003137 L19.4728128,21.9416173 Z"></path>
		<path d="M33.2222029,34.3154409 C34.4220983,35.146741 35.9388289,35.5623911 37.7755315,35.5623911 C39.7941792,35.5623911 41.3799233,35.1310561 42.5343325,34.2683862 C43.6887417,33.4041478 44.2659463,32.0458348 44.2659463,30.1918787 C44.2659463,29.1300105 44.0024399,28.281457 43.475427,27.6477867 C42.9484141,27.0141164 42.3131753,26.5467062 41.5728477,26.2455559 C40.8309516,25.9444057 39.8867201,25.6510979 38.7401534,25.3656326 C37.9606135,25.1758452 37.3441966,25.0001743 36.8940397,24.8417567 C36.4423144,24.6833391 36.0721506,24.4731614 35.7819798,24.2112234 C35.491809,23.9492855 35.3459394,23.6214709 35.3459394,23.2246427 C35.3459394,22.7650749 35.5796445,22.3980481 36.0454862,22.1204252 C36.511328,21.8428024 37.1653886,21.7032067 38.0060997,21.7032067 C38.8170094,21.7032067 39.4506797,21.8741722 39.9102475,22.2145347 C40.3682468,22.5548972 40.5988149,23.0270129 40.5988149,23.6293133 L40.5988149,23.8426281 L43.9240153,23.8426281 L43.9240153,23.5587313 C43.9240153,21.9745556 43.3656326,20.7825026 42.2504357,19.9810038 C41.1336703,19.1810735 39.6953642,18.7811084 37.9386546,18.7811084 C36.7920878,18.7811084 35.7553154,18.9583479 34.8314744,19.3143953 C33.9060648,19.6704427 33.1688742,20.214709 32.6183339,20.9440572 C32.0677937,21.6734054 31.7933078,22.5596026 31.7933078,23.605786 C31.7933078,24.7303939 32.0615197,25.6260021 32.596375,26.2910422 C33.1312304,26.9576507 33.7664692,27.4407459 34.5005228,27.7418961 C35.2345765,28.0430464 36.1819449,28.3441966 37.3441966,28.6453468 C38.1237365,28.8351342 38.7323109,29.0045312 39.1683513,29.1566748 C39.6043918,29.3072499 39.9620077,29.5127222 40.2459045,29.7746602 C40.5282328,30.0365981 40.669397,30.3738236 40.669397,30.7847682 C40.669397,31.324329 40.4372604,31.7682119 39.9698501,32.1164169 C39.5040084,32.4646218 38.7354479,32.6387243 37.6657372,32.6387243 C36.7481701,32.6387243 36.0376438,32.436389 35.5325898,32.0332869 C35.0275357,31.6286162 34.7750087,31.078076 34.7750087,30.3816661 L34.7985361,30.0020913 L31.4498083,30.0020913 L31.4262809,30.5243987 C31.4215755,32.2199373 32.0223074,33.4825723 33.2222029,34.3154409 Z"></path>
		<path d="M19.2406762,53.8321715 C20.3041129,54.4031021 21.4851865,54.6885674 22.7854653,54.6885674 C24.0841757,54.6885674 25.2652492,54.4046706 26.328686,53.8321715 C27.3921227,53.2628093 28.2375392,52.4299407 28.863367,51.3367027 C29.4891948,50.2434646 29.802893,48.9525967 29.802893,47.4625305 L29.802893,45.1333217 C29.802893,43.644824 29.4891948,42.3508191 28.863367,41.257581 C28.2375392,40.164343 27.3921227,39.3314744 26.328686,38.7621122 C25.2652492,38.1911816 24.0841757,37.9072848 22.7854653,37.9072848 C21.4851865,37.9072848 20.3041129,38.1911816 19.2406762,38.7621122 C18.1788079,39.3314744 17.3333914,40.164343 16.7075636,41.257581 C16.0801673,42.3508191 15.7664692,43.6432555 15.7664692,45.1333217 L15.7664692,47.4625305 C15.7664692,48.9525967 16.0801673,50.2434646 16.7075636,51.3367027 C17.3333914,52.4299407 18.1772395,53.2612409 19.2406762,53.8321715 Z M19.4822238,44.6078773 C19.4822238,43.4048449 19.7880795,42.4731614 20.3997909,41.8143953 C21.0115023,41.1571976 21.8067271,40.8278146 22.7854653,40.8278146 C23.7642036,40.8278146 24.5594284,41.1571976 25.1711398,41.8143953 C25.7812827,42.4731614 26.0887069,43.4032764 26.0887069,44.6078773 L26.0887069,47.9832694 C26.0887069,49.1878703 25.7828512,50.1179854 25.1711398,50.775183 C24.5594284,51.4339491 23.7642036,51.7617637 22.7854653,51.7617637 C21.8067271,51.7617637 21.0115023,51.4339491 20.3997909,50.775183 C19.7880795,50.1179854 19.4822238,49.1878703 19.4822238,47.9832694 L19.4822238,44.6078773 Z"></path>
		<path d="M42.5108052,38.7730917 C41.7845939,38.3527361 40.9940746,38.1425584 40.1376786,38.1425584 L32.5461833,38.1425584 L32.5461833,54.4501568 L36.0784245,54.4501568 L36.0784245,48.1510979 L40.1376786,48.1510979 C41.0097595,48.1510979 41.8065528,47.9299407 42.5343325,47.4860579 C43.2605437,47.042175 43.8330429,46.4367375 44.2549669,45.6681771 C44.6737539,44.8996166 44.8855002,44.063611 44.8855002,43.1601603 L44.8855002,43.0174277 C44.8855002,42.0982921 44.6721854,41.266992 44.2439875,40.5219589 C43.8157895,39.7753573 43.2385849,39.1934472 42.5108052,38.7730917 Z M41.3313001,43.2527013 C41.3313001,43.7922621 41.1399442,44.2643778 40.758801,44.66748 C40.3760892,45.0721506 39.8945626,45.2729174 39.314221,45.2729174 L36.079993,45.2729174 L36.079993,41.0646567 L39.314221,41.0646567 C39.9102475,41.0646567 40.3949111,41.266992 40.7697804,41.6700941 C41.1446497,42.0747647 41.3313001,42.5547229 41.3313001,43.1084001 L41.3313001,43.2527013 Z"></path>
		<polygon points="8.99372604 44.6078773 3.53537818 44.6078773 3.53537818 38.1441269 0.00470547229 38.1441269 0.00470547229 54.4501568 3.55890554 54.4501568 3.55890554 47.6507494 8.99372604 47.6507494 8.99372604 54.4501568 12.5259672 54.4501568 12.5259672 38.1441269 8.99372604 38.1441269"></polygon>
		<polygon points="40.5909725 16.2527013 44.3600558 16.2527013 35.9921575 0.222725688 32.2230742 0.222725688 36.7403276 8.88393168 31.4419658 8.88393168 31.4419658 12.1950157 38.4719414 12.1950157"></polygon>
		<path d="M19.5684908,9.96619031 L21.5275357,9.96619031 L25.4032764,16.2323109 L29.3025444,16.2323109 L25.0189962,9.33095155 C25.9491112,9.05803416 26.7866853,8.58121297 27.3999651,7.8785291 C28.0116765,7.17427675 28.352039,6.2661206 28.352039,5.01760195 L28.352039,4.92662949 C28.352039,3.26873475 27.7403276,2.0202161 26.6517951,1.20303242 C25.561694,0.385848728 23.9979087,0 22.0937609,0 L15.9186128,0 L15.9186128,16.2323109 L19.5684908,16.2323109 L19.5684908,9.96619031 Z M19.5684908,2.81544092 L22.0043569,2.81544092 C23.7955734,2.81544092 24.7696061,3.38323458 24.7696061,5.04112931 L24.7696061,5.13210178 C24.7696061,6.67549669 23.8410596,7.47072151 22.0043569,7.47072151 L19.5684908,7.47072151 L19.5684908,2.81544092 Z"></path>
		<path d="M12.4334263,11.7527013 L12.4334263,11.6617288 C12.4334263,9.48152666 11.2994075,8.27849425 9.19135587,7.84715929 C11.0045312,7.32485186 11.8217149,6.09986058 11.8217149,4.37452074 L11.8217149,4.28354827 C11.8201464,1.49163472 10.0069711,0.0611711398 6.44806553,0.0611711398 L0.0784245382,0.0611711398 L0.0784245382,16.293482 L6.74294179,16.293482 C10.5292785,16.293482 12.4334263,14.7500871 12.4334263,11.7527013 Z M3.66085744,2.5817358 L5.83635413,2.5817358 C7.55855699,2.5817358 8.33025444,3.19501568 8.33025444,4.55646567 L8.33025444,4.64743813 C8.33025444,6.09986058 7.64952945,6.73666783 5.85988149,6.73666783 L3.66085744,6.73666783 L3.66085744,2.5817358 Z M3.66085744,13.7509585 L3.66085744,9.09724643 L5.9947717,9.09724643 C7.98989195,9.09724643 8.80550715,9.84698501 8.80550715,11.3668526 L8.80550715,11.457825 C8.80550715,12.9337748 7.98989195,13.7509585 6.17671663,13.7509585 L3.66085744,13.7509585 Z"></path>
  </g>
</svg>